HIERARCHY
ROOT Hip
{
	OFFSET	0.0000	0.0000	0.0000
	CHANNELS 6 Xposition Yposition Zposition Xrotation Yrotation Zrotation
	JOINT LowerSpine
	{
		OFFSET	0.0000	10.1395	-5.4869
		CHANNELS 3 Xrotation Yrotation Zrotation
		JOINT MiddleSpine
		{
			OFFSET	0.0000	9.2531	0.4833
			CHANNELS 3 Xrotation Yrotation Zrotation
			JOINT Chest
			{
				OFFSET	0.0000	11.4497	-2.5486
				CHANNELS 3 Xrotation Yrotation Zrotation
				JOINT Neck
				{
					OFFSET	0.0000	25.8013	-0.5366
					CHANNELS 3 Xrotation Yrotation Zrotation
					JOINT Head
					{
						OFFSET	0.0000	14.5703	3.9631
						CHANNELS 3 Xrotation Yrotation Zrotation
						End Site
						{
							OFFSET	0.0001	20.3585	0.6077
						}
					}
				}
				JOINT LClavicle
				{
					OFFSET	2.6049	24.8995	8.5307
					CHANNELS 3 Xrotation Yrotation Zrotation
					JOINT LShoulder
					{
						OFFSET	15.2179	3.5715	-5.7790
						CHANNELS 3 Xrotation Yrotation Zrotation
						JOINT LForearm
						{
							OFFSET	32.3260	-0.1148	-0.2801
							CHANNELS 3 Xrotation Yrotation Zrotation
							JOINT LHand
							{
								OFFSET	26.9666	0.0782	-0.1615
								CHANNELS 3 Xrotation Yrotation Zrotation
								JOINT LFinger1
								{
									OFFSET	10.4515	0.9140	2.9028
									CHANNELS 3 Xrotation Yrotation Zrotation
									JOINT LFinger11
									{
										OFFSET	3.9094	-0.9533	0.6888
										CHANNELS 3 Xrotation Yrotation Zrotation
										JOINT LFinger12
										{
											OFFSET	2.6688	-0.6511	0.4705
											CHANNELS 3 Xrotation Yrotation Zrotation
											End Site
											{
												OFFSET	1.8991	-0.5669	0.3081
											}
										}
									}
								}
								JOINT LFinger2
								{
									OFFSET	10.6075	1.0556	0.2528
									CHANNELS 3 Xrotation Yrotation Zrotation
									JOINT LFinger21
									{
										OFFSET	4.8337	0.0135	-0.0285
										CHANNELS 3 Xrotation Yrotation Zrotation
										JOINT LFinger22
										{
											OFFSET	2.6792	0.0081	-0.0163
											CHANNELS 3 Xrotation Yrotation Zrotation
											End Site
											{
												OFFSET	2.4065	-0.1699	0.0032
											}
										}
									}
								}
								JOINT LFinger3
								{
									OFFSET	10.0528	0.7043	-2.3782
									CHANNELS 3 Xrotation Yrotation Zrotation
									JOINT LFinger31
									{
										OFFSET	4.3861	-0.2221	-0.2746
										CHANNELS 3 Xrotation Yrotation Zrotation
										JOINT LFinger32
										{
											OFFSET	2.4994	-0.1257	-0.1571
											CHANNELS 3 Xrotation Yrotation Zrotation
											End Site
											{
												OFFSET	2.2099	-0.2717	-0.1045
											}
										}
									}
								}
								JOINT LFinger4
								{
									OFFSET	9.3286	-0.7090	-4.1074
									CHANNELS 3 Xrotation Yrotation Zrotation
									JOINT LFinger41
									{
										OFFSET	2.6979	-0.5626	-0.7447
										CHANNELS 3 Xrotation Yrotation Zrotation
										JOINT LFinger42
										{
											OFFSET	1.9783	-0.4120	-0.5465
											CHANNELS 3 Xrotation Yrotation Zrotation
											End Site
											{
												OFFSET	1.7559	-0.4825	-0.4029
											}
										}
									}
								}
								JOINT LFinger0
								{
									OFFSET	2.1619	-1.6364	1.6390
									CHANNELS 3 Xrotation Yrotation Zrotation
									JOINT LFinger01
									{
										OFFSET	4.0253	-1.3221	3.0349
										CHANNELS 3 Xrotation Yrotation Zrotation
										JOINT LFinger02
										{
											OFFSET	2.6507	-0.9484	1.9097
											CHANNELS 3 Xrotation Yrotation Zrotation
											End Site
											{
												OFFSET	1.9492	-0.6710	1.3347
											}
										}
									}
								}
							}
						}
					}
				}
				JOINT RClavicle
				{
					OFFSET	-2.6049	24.8995	8.5307
					CHANNELS 3 Xrotation Yrotation Zrotation
					JOINT RShoulder
					{
						OFFSET	-15.2206	3.5721	-5.7800
						CHANNELS 3 Xrotation Yrotation Zrotation
						JOINT RForearm
						{
							OFFSET	-32.3260	-0.1148	-0.2801
							CHANNELS 3 Xrotation Yrotation Zrotation
							JOINT RHand
							{
								OFFSET	-26.9666	0.0783	-0.1615
								CHANNELS 3 Xrotation Yrotation Zrotation
								JOINT RFinger1
								{
									OFFSET	-10.4515	0.9140	2.9028
									CHANNELS 3 Xrotation Yrotation Zrotation
									JOINT RFinger11
									{
										OFFSET	-3.9094	-0.9533	0.6888
										CHANNELS 3 Xrotation Yrotation Zrotation
										JOINT RFinger12
										{
											OFFSET	-2.6688	-0.6511	0.4705
											CHANNELS 3 Xrotation Yrotation Zrotation
											End Site
											{
												OFFSET	-1.8991	-0.5669	0.3081
											}
										}
									}
								}
								JOINT RFinger2
								{
									OFFSET	-10.6075	1.0556	0.2528
									CHANNELS 3 Xrotation Yrotation Zrotation
									JOINT RFinger21
									{
										OFFSET	-4.8337	0.0135	-0.0285
										CHANNELS 3 Xrotation Yrotation Zrotation
										JOINT RFinger22
										{
											OFFSET	-2.6792	0.0081	-0.0163
											CHANNELS 3 Xrotation Yrotation Zrotation
											End Site
											{
												OFFSET	-2.4065	-0.1699	0.0032
											}
										}
									}
								}
								JOINT RFinger3
								{
									OFFSET	-10.0528	0.7043	-2.3782
									CHANNELS 3 Xrotation Yrotation Zrotation
									JOINT RFinger31
									{
										OFFSET	-4.3861	-0.2221	-0.2746
										CHANNELS 3 Xrotation Yrotation Zrotation
										JOINT RFinger32
										{
											OFFSET	-2.4994	-0.1257	-0.1571
											CHANNELS 3 Xrotation Yrotation Zrotation
											End Site
											{
												OFFSET	-2.2099	-0.2717	-0.1045
											}
										}
									}
								}
								JOINT RFinger4
								{
									OFFSET	-9.3286	-0.7090	-4.1074
									CHANNELS 3 Xrotation Yrotation Zrotation
									JOINT RFinger41
									{
										OFFSET	-2.6979	-0.5626	-0.7447
										CHANNELS 3 Xrotation Yrotation Zrotation
										JOINT RFinger42
										{
											OFFSET	-1.9783	-0.4120	-0.5465
											CHANNELS 3 Xrotation Yrotation Zrotation
											End Site
											{
												OFFSET	-1.7559	-0.4825	-0.4029
											}
										}
									}
								}
								JOINT RFinger0
								{
									OFFSET	-2.1619	-1.6364	1.6390
									CHANNELS 3 Xrotation Yrotation Zrotation
									JOINT RFinger01
									{
										OFFSET	-4.0253	-1.3221	3.0350
										CHANNELS 3 Xrotation Yrotation Zrotation
										JOINT RFinger02
										{
											OFFSET	-2.6507	-0.9484	1.9097
											CHANNELS 3 Xrotation Yrotation Zrotation
											End Site
											{
												OFFSET	-1.9492	-0.6710	1.3347
											}
										}
									}
								}
							}
						}
					}
				}
			}
		}
	}
	JOINT RThigh
	{
		OFFSET	-10.8468	4.5834	-0.8941
		CHANNELS 3 Xrotation Yrotation Zrotation
		JOINT RShin
		{
			OFFSET	-0.8679	-47.1786	0.0000
			CHANNELS 3 Xrotation Yrotation Zrotation
			JOINT RFoot
			{
				OFFSET	0.0000	-46.3265	0.0000
				CHANNELS 3 Xrotation Yrotation Zrotation
				JOINT RToe
				{
					OFFSET	0.0000	-5.0917	10.6474
					CHANNELS 3 Xrotation Yrotation Zrotation
					End Site
					{
						OFFSET	0.0000	0.0000	7.1429
					}
				}
			}
		}
	}
	JOINT LThigh
	{
		OFFSET	10.8467	4.5837	-0.8941
		CHANNELS 3 Xrotation Yrotation Zrotation
		JOINT LShin
		{
			OFFSET	0.8680	-47.1789	0.0000
			CHANNELS 3 Xrotation Yrotation Zrotation
			JOINT LFoot
			{
				OFFSET	0.0000	-46.3265	0.0000
				CHANNELS 3 Xrotation Yrotation Zrotation
				JOINT LToe
				{
					OFFSET	0.0000	-5.0917	10.6474
					CHANNELS 3 Xrotation Yrotation Zrotation
					End Site
					{
						OFFSET	0.0000	0.0000	7.1429
					}
				}
			}
		}
	}
}
MOTION
Frames:	6
Frame Time: 0.0333333000
	-18.1077	97.5614	-2.8430	20.215590	27.111830	-20.801690	0.000000	0.000000	0.000000	2.851032	0.970862	1.273187	9.423087	3.471798	4.048415	0.000000	0.000000	0.000000	0.000000	0.000000	0.000000	0.000000	0.000000	-15.100000	10.499920	-22.934760	-57.704030	-3.332265	-34.762700	-0.039453	0.000000	0.000000	0.000000	0.000000	0.000000	0.000000	0.000000	0.000000	0.000000	0.000000	0.000000	0.000000	0.000000	0.000000	0.000000	0.000000	0.000000	0.000000	0.000000	0.000000	0.000000	0.000000	0.000000	0.000000	0.000000	0.000000	0.000000	0.000000	0.000000	0.000000	0.000000	0.000000	0.000000	0.000000	0.000000	0.000000	0.000000	0.000000	0.000000	0.000000	0.000000	0.000000	0.000000	0.000000	0.000000	0.000000	0.000000	0.000000	0.000000	0.000000	14.109930	4.396180	16.918130	55.309520	-11.028580	33.853840	-0.046971	0.000000	0.000000	0.000000	0.000000	0.000000	0.000000	0.000000	0.000000	0.000000	0.000000	0.000000	0.000000	0.000000	0.000000	0.000000	0.000000	0.000000	0.000000	0.000000	0.000000	0.000000	0.000000	0.000000	0.000000	0.000000	0.000000	0.000000	0.000000	0.000000	0.000000	0.000000	0.000000	0.000000	0.000000	0.000000	0.000000	0.000000	0.000000	0.000000	0.000000	0.000000	0.000000	0.000000	0.000000	0.000000	0.000000	0.000000	0.000000	-1.595048	-12.449900	7.488261	16.352880	-12.189190	3.520047	0.353613	-0.113153	-0.055014	-0.000002	0.000000	0.000000	-4.009605	-13.811780	7.010305	114.015300	6.509076	10.825860	0.432503	0.324886	0.154144	0.000004	0.000000	0.000000
	-18.8954	97.7038	-2.4289	20.696810	29.316680	-21.186510	0.000000	0.000000	0.000000	2.869876	0.978100	1.385906	9.476990	3.519109	4.420875	0.000000	0.000000	0.000000	0.000000	0.000000	0.000000	0.000000	0.000000	-15.425070	9.037514	-21.578100	-59.458800	-5.812592	-33.884650	-0.048820	0.000000	0.000000	0.000000	0.000000	0.000000	0.000000	0.000000	0.000000	0.000000	0.000000	0.000000	0.000000	0.000000	0.000000	0.000000	0.000000	0.000000	0.000000	0.000000	0.000000	0.000000	0.000000	0.000000	0.000000	0.000000	0.000000	0.000000	0.000000	0.000000	0.000000	0.000000	0.000000	0.000000	0.000000	0.000000	0.000000	0.000000	0.000000	0.000000	0.000000	0.000000	0.000000	0.000000	0.000000	0.000000	0.000000	0.000000	0.000000	0.000000	0.000000	14.109560	4.270376	17.073610	55.326230	-11.065850	33.306190	-0.024901	0.000000	0.000000	0.000000	0.000000	0.000000	0.000000	0.000000	0.000000	0.000000	0.000000	0.000000	0.000000	0.000000	0.000000	0.000000	0.000000	0.000000	0.000000	0.000000	0.000000	0.000000	0.000000	0.000000	0.000000	0.000000	0.000000	0.000000	0.000000	0.000000	0.000000	0.000000	0.000000	0.000000	0.000000	0.000000	0.000000	0.000000	0.000000	0.000000	0.000000	0.000000	0.000000	0.000000	0.000000	0.000000	0.000000	0.000000	0.000000	-1.347031	-13.421050	7.993873	17.810040	-13.061030	4.115550	0.387567	-0.214963	-0.102828	-0.000002	0.000000	0.000000	-3.895751	-12.429400	6.124272	115.063600	6.167102	9.474391	0.259242	0.266677	0.127102	0.000004	0.000000	0.000000
	-19.7282	97.7825	-1.9455	20.857640	30.754900	-21.517430	0.000000	0.000000	0.000000	2.890910	1.062219	1.475556	9.533483	3.817377	4.701845	0.000000	0.000000	0.000000	0.000000	0.000000	0.000000	0.000000	0.000000	-15.624270	8.519262	-20.274780	-60.585970	-7.310804	-33.906890	-0.071050	0.000000	0.000000	0.000000	0.000000	0.000000	0.000000	0.000000	0.000000	0.000000	0.000000	0.000000	0.000000	0.000000	0.000000	0.000000	0.000000	0.000000	0.000000	0.000000	0.000000	0.000000	0.000000	0.000000	0.000000	0.000000	0.000000	0.000000	0.000000	0.000000	0.000000	0.000000	0.000000	0.000000	0.000000	0.000000	0.000000	0.000000	0.000000	0.000000	0.000000	0.000000	0.000000	0.000000	0.000000	0.000000	0.000000	0.000000	0.000000	0.000000	0.000000	14.165100	3.664661	17.497310	55.702980	-11.469700	32.072600	-0.039297	0.000000	0.000000	0.000000	0.000000	0.000000	0.000000	0.000000	0.000000	0.000000	0.000000	0.000000	0.000000	0.000000	0.000000	0.000000	0.000000	0.000000	0.000000	0.000000	0.000000	0.000000	0.000000	0.000000	0.000000	0.000000	0.000000	0.000000	0.000000	0.000000	0.000000	0.000000	0.000000	0.000000	0.000000	0.000000	0.000000	0.000000	0.000000	0.000000	0.000000	0.000000	0.000000	0.000000	0.000000	0.000000	0.000000	0.000000	0.000000	-1.211106	-14.012910	8.675269	19.504640	-13.530120	4.687949	0.019843	-0.408401	-0.194317	-0.000002	0.000000	0.000000	-3.243000	-13.082990	5.803577	114.814400	6.429551	10.141640	0.003744	0.078908	0.038025	0.000004	0.000000	0.000000
	-20.4857	97.9385	-1.3979	20.641080	31.688750	-21.789640	0.000000	0.000000	0.000000	2.931920	1.229286	1.564505	9.648572	4.393679	4.962550	0.000000	0.000000	0.000000	0.000000	0.000000	0.000000	0.000000	0.000000	-15.660310	9.057225	-19.870430	-60.808430	-7.125342	-34.422660	-0.053099	0.000000	0.000000	0.000000	0.000000	0.000000	0.000000	0.000000	0.000000	0.000000	0.000000	0.000000	0.000000	0.000000	0.000000	0.000000	0.000000	0.000000	0.000000	0.000000	0.000000	0.000000	0.000000	0.000000	0.000000	0.000000	0.000000	0.000000	0.000000	0.000000	0.000000	0.000000	0.000000	0.000000	0.000000	0.000000	0.000000	0.000000	0.000000	0.000000	0.000000	0.000000	0.000000	0.000000	0.000000	0.000000	0.000000	0.000000	0.000000	0.000000	0.000000	14.182220	3.688438	18.818970	55.734330	-10.750010	30.740230	-0.046467	0.000000	0.000000	0.000000	0.000000	0.000000	0.000000	0.000000	0.000000	0.000000	0.000000	0.000000	0.000000	0.000000	0.000000	0.000000	0.000000	0.000000	0.000000	0.000000	0.000000	0.000000	0.000000	0.000000	0.000000	0.000000	0.000000	0.000000	0.000000	0.000000	0.000000	0.000000	0.000000	0.000000	0.000000	0.000000	0.000000	0.000000	0.000000	0.000000	0.000000	0.000000	0.000000	0.000000	0.000000	0.000000	0.000000	0.000000	0.000000	-0.951158	-14.338620	9.398097	20.705870	-13.770950	5.078595	-0.525790	-0.263548	-0.126092	-0.000002	0.000000	0.000000	-2.196672	-14.348930	5.753285	113.688900	6.765392	11.481760	-0.116385	-0.342731	-0.166348	0.000004	0.000000	0.000000
	-21.0743	98.2136	-0.8681	20.363240	32.738980	-22.012730	0.000000	0.000000	0.000000	2.976605	1.370194	1.622257	9.779888	4.877514	5.123740	0.000000	0.000000	0.000000	0.000000	0.000000	0.000000	0.000000	0.000000	-15.721260	9.227325	-19.389380	-61.137790	-7.347870	-34.108960	-0.029613	0.000000	0.000000	0.000000	0.000000	0.000000	0.000000	0.000000	0.000000	0.000000	0.000000	0.000000	0.000000	0.000000	0.000000	0.000000	0.000000	0.000000	0.000000	0.000000	0.000000	0.000000	0.000000	0.000000	0.000000	0.000000	0.000000	0.000000	0.000000	0.000000	0.000000	0.000000	0.000000	0.000000	0.000000	0.000000	0.000000	0.000000	0.000000	0.000000	0.000000	0.000000	0.000000	0.000000	0.000000	0.000000	0.000000	0.000000	0.000000	0.000000	0.000000	14.100560	5.136085	21.390270	54.898510	-7.944966	29.746570	-0.032060	0.000000	0.000000	0.000000	0.000000	0.000000	0.000000	0.000000	0.000000	0.000000	0.000000	0.000000	0.000000	0.000000	0.000000	0.000000	0.000000	0.000000	0.000000	0.000000	0.000000	0.000000	0.000000	0.000000	0.000000	0.000000	0.000000	0.000000	0.000000	0.000000	0.000000	0.000000	0.000000	0.000000	0.000000	0.000000	0.000000	0.000000	0.000000	0.000000	0.000000	0.000000	0.000000	0.000000	0.000000	0.000000	0.000000	0.000000	0.000000	-0.523994	-14.805110	9.733814	21.431160	-14.182110	5.426017	-0.915529	0.287432	0.139280	-0.000002	0.000000	0.000000	-1.146321	-15.497500	5.111919	112.640800	7.050451	12.721870	0.033741	-0.644216	-0.310509	0.000004	0.000000	0.000000
	-21.5370	98.3898	-0.5781	20.433530	34.196150	-22.133520	0.000000	0.000000	0.000000	2.985736	1.416267	1.630459	9.805474	5.032993	5.141579	0.000000	0.000000	0.000000	0.000000	0.000000	0.000000	0.000000	0.000000	-15.941240	8.401362	-18.406520	-62.246880	-8.981021	-33.092860	0.003314	0.000000	0.000000	0.000000	0.000000	0.000000	0.000000	0.000000	0.000000	0.000000	0.000000	0.000000	0.000000	0.000000	0.000000	0.000000	0.000000	0.000000	0.000000	0.000000	0.000000	0.000000	0.000000	0.000000	0.000000	0.000000	0.000000	0.000000	0.000000	0.000000	0.000000	0.000000	0.000000	0.000000	0.000000	0.000000	0.000000	0.000000	0.000000	0.000000	0.000000	0.000000	0.000000	0.000000	0.000000	0.000000	0.000000	0.000000	0.000000	0.000000	0.000000	14.033670	6.677125	23.212690	54.077750	-5.505812	29.385990	-0.024237	0.000000	0.000000	0.000000	0.000000	0.000000	0.000000	0.000000	0.000000	0.000000	0.000000	0.000000	0.000000	0.000000	0.000000	0.000000	0.000000	0.000000	0.000000	0.000000	0.000000	0.000000	0.000000	0.000000	0.000000	0.000000	0.000000	0.000000	0.000000	0.000000	0.000000	0.000000	0.000000	0.000000	0.000000	0.000000	0.000000	0.000000	0.000000	0.000000	0.000000	0.000000	0.000000	0.000000	0.000000	0.000000	0.000000	0.000000	0.000000	-0.163166	-15.809490	9.439520	22.295140	-15.074720	6.021608	-1.048145	0.677390	0.330265	-0.000002	0.000000	0.000000	-0.703287	-16.957620	3.582740	112.374000	7.621875	14.128760	0.311571	-0.403485	-0.190715	0.000004	0.000000	0.000000
